<svg width="40" height="40" viewBox="0 0 40 40" fill="none" xmlns="http://www.w3.org/2000/svg">
<path fill-rule="evenodd" clip-rule="evenodd" d="M9.48106 7.64706H6V6H10.8618L11.8922 11.3399L33.9486 10.9253V20.2699C34.0491 20.6219 34.028 21.0928 33.6492 21.4905C33.2425 21.9177 32.5949 22.0588 31.8629 22.0588H13.9606L14.3167 23.9042C14.4278 24.2048 14.6874 24.6731 15.105 25.0645C15.5309 25.4636 16.0984 25.7647 16.8457 25.7647H33.1144V27.4118H16.8457C15.5908 27.4118 14.6288 26.8893 13.9562 26.259C13.2978 25.642 12.8949 24.9045 12.7171 24.3781L12.6995 24.3258L9.48106 7.64706ZM13.6428 20.4118H31.8629C32.0465 20.4118 32.1824 20.3992 32.2801 20.383V12.6041L12.209 12.9813L13.6428 20.4118Z" fill="#272727"/>
<path d="M18.5143 31.5294C18.5143 32.8939 17.3937 34 16.0115 34C14.6292 34 13.5086 32.8939 13.5086 31.5294C13.5086 30.1649 14.6292 29.0588 16.0115 29.0588C17.3937 29.0588 18.5143 30.1649 18.5143 31.5294Z" fill="#272727"/>
<path d="M30.1943 34C31.5766 34 32.6972 32.8939 32.6972 31.5294C32.6972 30.1649 31.5766 29.0588 30.1943 29.0588C28.8121 29.0588 27.6915 30.1649 27.6915 31.5294C27.6915 32.8939 28.8121 34 30.1943 34Z" fill="#272727"/>
</svg>
