<svg width="40" height="40" viewBox="0 0 40 40" fill="none" xmlns="http://www.w3.org/2000/svg">
<path fill-rule="evenodd" clip-rule="evenodd" d="M25.352 14C25.352 16.9486 22.9617 19.3388 20.0132 19.3388C17.0646 19.3388 14.6743 16.9486 14.6743 14C14.6743 11.0514 17.0646 8.66117 20.0132 8.66117C22.9617 8.66117 25.352 11.0514 25.352 14ZM22.8215 20.4139C25.2893 19.3318 27.0132 16.8672 27.0132 14C27.0132 10.134 23.8792 7 20.0132 7C16.1472 7 13.0132 10.134 13.0132 14C13.0132 16.9162 14.7964 19.4159 17.3319 20.4681C14.1817 21.1464 11.7856 22.9034 10.0397 24.9623C7.81329 27.5878 6.62127 30.7238 6.19869 32.8366L6 33.8301H33.9936L33.8324 32.863C33.48 30.7484 32.3912 27.6068 30.2471 24.9749C28.5164 22.8505 26.0868 21.0494 22.8215 20.4139ZM31.9916 32.1689H8.06949C8.58398 30.3553 9.62097 28.0245 11.3066 26.0367C13.3028 23.6827 16.1852 21.8301 20.2131 21.8301C24.2382 21.8301 27.0493 23.6797 28.9592 26.0241C30.5817 28.0158 31.5408 30.3542 31.9916 32.1689Z" fill="#272727"/>
</svg>
